<svg width="52" height="52" viewBox="0 0 52 52" fill="none" xmlns="http://www.w3.org/2000/svg">
<ellipse cx="25.4791" cy="26.0798" rx="21.1122" ry="21.1122" fill="white" stroke="#34B3FF" stroke-width="3.2"/>
<path d="M25.9999 11.8182V40.1818" stroke="#34B3FF" stroke-width="3.2" stroke-linecap="round" stroke-linejoin="round"/>
<path d="M32.4462 16.9751H22.7768C21.58 16.9751 20.4323 17.4505 19.5861 18.2967C18.7398 19.143 18.2644 20.2907 18.2644 21.4875C18.2644 22.6843 18.7398 23.832 19.5861 24.6782C20.4323 25.5245 21.58 25.9999 22.7768 25.9999H29.2231C30.4198 25.9999 31.5676 26.4753 32.4138 27.3215C33.2601 28.1678 33.7355 29.3155 33.7355 30.5123C33.7355 31.709 33.2601 32.8568 32.4138 33.703C31.5676 34.5493 30.4198 35.0247 29.2231 35.0247H18.2644" stroke="#34B3FF" stroke-width="3.2" stroke-linecap="round" stroke-linejoin="round"/>
</svg>
