<svg width="52" height="53" viewBox="0 0 52 53" fill="none" xmlns="http://www.w3.org/2000/svg">
<path d="M43.3335 26.2618C43.3335 39.2618 26.0001 47.9285 26.0001 47.9285C26.0001 47.9285 8.66679 39.2618 8.66679 26.2618V11.0951L26.0001 4.59512L43.3335 11.0951V26.2618Z" fill="white" stroke="#34B3FF" stroke-width="3.2" stroke-linecap="round" stroke-linejoin="round"/>
<path d="M12.9535 24.5955C12.9535 24.706 13.043 24.7955 13.1535 24.7955H25.3914C25.5018 24.7955 25.5914 24.706 25.5914 24.5955V10.1399C25.5914 10.0745 25.5594 10.0132 25.5057 9.97578C25.452 9.93839 25.3834 9.92961 25.3221 9.95229L13.0841 14.4744C13.0056 14.5034 12.9535 14.5783 12.9535 14.662V24.5955ZM26.0152 26.4234C25.962 26.4234 25.9111 26.4446 25.8735 26.4822C25.836 26.5199 25.815 26.5709 25.8152 26.6241L25.8673 42.1708C25.8676 42.2446 25.9084 42.3122 25.9736 42.3468C26.0388 42.3814 26.1177 42.3772 26.1789 42.3361C28.2115 40.9692 31.0705 38.827 33.6062 36.1431C36.1399 33.4616 38.3658 30.2236 39.106 26.6641C39.1183 26.6052 39.1033 26.5439 39.0654 26.4972C39.0274 26.4505 38.9704 26.4234 38.9102 26.4234H26.0152Z" fill="#34B3FF" stroke="#34B3FF" stroke-width="0.4" stroke-linecap="round" stroke-linejoin="round"/>
</svg>
